<svg xmlns="http://www.w3.org/2000/svg" xmlns:xlink="http://www.w3.org/1999/xlink" width="354" height="620" version="1.1" viewBox="-69 -56 354.5 620" xml:space="preserve"><style type="text/css">.fnt1{fill:#000;font-family:Times;font-style:italic}.fnt1,.fnt2,.fnt3{font-size:12pt;font-weight:400}.fnt2{fill:#000;font-family:Helvetica;font-style:normal}.fnt3{text-decoration:overline}.fnt3,.fnt4,.fnt5{fill:#000;font-family:Helvetica;font-style:normal}.fnt4{font-size:16pt;font-weight:700}.fnt5{font-size:10pt}</style><defs><marker id="arrow_fwd" markerHeight="8" markerUnits="userSpaceOnUse" markerWidth="8" orient="auto" refX="3.2" refY="4" viewBox="0 0 8 8"><g><path fill="#000" stroke="none" d="M 0 -4 C 2 -1, 2 1, 0 4 L 8 0 z" transform="translate(-0.0,4.0)"/></g></marker><marker id="arrow_back" markerHeight="8" markerUnits="userSpaceOnUse" markerWidth="8" orient="auto" refX="4.8" refY="4" viewBox="0 0 8 8"><g><path fill="#000" stroke="none" d="M 0 -4 C -2 -1, -2 1, 0 4 L -8 0 z" transform="translate(8.0,4.0)"/></g></marker></defs><rect width="100%" height="100%" x="-69" y="-56" fill="#fff"/><g transform="translate(0,0)"><rect width="260" height="171" x="0" y="-21" fill="#CCFED2" stroke="#000" stroke-width="1"/><text x="130" y="-5" class="fnt1" dy="5.5" text-anchor="middle">Data Signals</text><g transform="translate(0,19)"><line x1="-20" x2="0" y1="0" y2="0" fill="none" stroke="#000" stroke-width="1"/><text x="10" y="0" class="fnt2" dy="5.5" text-anchor="normal">SLOW</text></g><g transform="translate(0,41)"><line x1="-20" x2="0" y1="0" y2="0" fill="none" stroke="#000" stroke-width="1"/><text x="10" y="0" class="fnt2" dy="5.5" text-anchor="normal">INP_DIS</text></g><g transform="translate(0,63)"><line x1="-20" x2="0" y1="0" y2="0" fill="none" stroke="#000" stroke-width="1"/><text x="10" y="0" class="fnt2" dy="5.5" text-anchor="normal">OUT</text></g><g transform="translate(260,19)"><line x1="20" x2="0" y1="0" y2="0" fill="none" stroke="#000" stroke-width="1"/><text x="-10" y="0" class="fnt2" dy="5.5" text-anchor="end">IN</text></g><g transform="translate(260,41)"><line x1="20" x2="0" y1="0" y2="0" fill="none" stroke="#000" stroke-width="1"/><text x="-10" y="0" class="fnt2" dy="5.5" text-anchor="end">IN_H</text></g><g transform="translate(260,63)"><line x1="16.16" x2="3.84" y1="0" y2="0" fill="none" stroke="#000" stroke-width="1" marker-end="url(#arrow_fwd)" marker-start="url(#arrow_back)"/><text x="-10" y="0" class="fnt2" dy="5.5" text-anchor="end">PAD</text></g><g transform="translate(260,85)"><line x1="16.16" x2="3.84" y1="0" y2="0" fill="none" stroke="#000" stroke-width="1" marker-end="url(#arrow_fwd)" marker-start="url(#arrow_back)"/><text x="-10" y="0" class="fnt2" dy="5.5" text-anchor="end">PAD_A_ESD_0_H</text></g><g transform="translate(260,107)"><line x1="16.16" x2="3.84" y1="0" y2="0" fill="none" stroke="#000" stroke-width="1" marker-end="url(#arrow_fwd)" marker-start="url(#arrow_back)"/><text x="-10" y="0" class="fnt2" dy="5.5" text-anchor="end">PAD_A_ESD_1_H</text></g><g transform="translate(260,129)"><line x1="16.16" x2="3.84" y1="0" y2="0" fill="none" stroke="#000" stroke-width="1" marker-end="url(#arrow_fwd)" marker-start="url(#arrow_back)"/><text x="-10" y="0" class="fnt2" dy="5.5" text-anchor="end">PAD_A_NOESD_H</text></g></g><g transform="translate(0,171.0)"><rect width="260" height="171" x="0" y="-21" fill="#FFF6B1" stroke="#000" stroke-width="1"/><text x="130" y="-5" class="fnt1" dy="5.5" text-anchor="middle">Control Signals</text><g transform="translate(0,19)"><line x1="-20" x2="0" y1="0" y2="0" fill="none" stroke="#000" stroke-width="3"/><text x="10" y="0" class="fnt2" dy="5.5" text-anchor="normal">DM</text><text x="-30" y="0" class="fnt2" dy="5.5" text-anchor="end" style="fill:#969696"><tspan fill="#039BE5">[2:0]</tspan></text></g><g transform="translate(0,41)"><line x1="-20" x2="0" y1="0" y2="0" fill="none" stroke="#000" stroke-width="1"/><text x="10" y="0" class="fnt2" dy="5.5" text-anchor="normal">ENABLE_H</text></g><g transform="translate(0,63)"><line x1="-20" x2="0" y1="0" y2="0" fill="none" stroke="#000" stroke-width="1"/><ellipse cx="-3" cy="0" fill="#FFF" stroke="#000" stroke-width="1" rx="3" ry="3"/><text x="10" y="0" class="fnt3" dy="5.5" text-anchor="normal">HLD_H</text></g><g transform="translate(0,85)"><line x1="-20" x2="0" y1="0" y2="0" fill="none" stroke="#000" stroke-width="1"/><text x="10" y="0" class="fnt2" dy="5.5" text-anchor="normal">HLD_OVR</text></g><g transform="translate(0,107)"><line x1="-20" x2="0" y1="0" y2="0" fill="none" stroke="#000" stroke-width="1"/><text x="10" y="0" class="fnt2" dy="5.5" text-anchor="normal">IBUF_SEL</text></g><g transform="translate(0,129)"><line x1="-20" x2="0" y1="0" y2="0" fill="none" stroke="#000" stroke-width="1"/><ellipse cx="-3" cy="0" fill="#FFF" stroke="#000" stroke-width="1" rx="3" ry="3"/><text x="10" y="0" class="fnt3" dy="5.5" text-anchor="normal">OE</text></g></g><g transform="translate(0,342.0)"><rect width="260" height="215" x="0" y="-21" fill="#FBB" stroke="#000" stroke-width="1"/><text x="130" y="-5" class="fnt1" dy="5.5" text-anchor="middle">Power</text><g transform="translate(0,19)"><line x1="-20" x2="0" y1="0" y2="0" fill="none" stroke="#000" stroke-width="1"/><text x="10" y="0" class="fnt2" dy="5.5" text-anchor="normal">VREG_EN</text></g><g transform="translate(0,41)"><line x1="-20" x2="0" y1="0" y2="0" fill="none" stroke="#000" stroke-width="1"/><text x="10" y="0" class="fnt2" dy="5.5" text-anchor="normal">VTRIP_SEL</text></g><g transform="translate(0,63)"><line x1="-20" x2="0" y1="0" y2="0" fill="none" stroke="#000" stroke-width="1"/><text x="10" y="0" class="fnt2" dy="5.5" text-anchor="normal">REFLEAK_BIAS</text></g><g transform="translate(0,85)"><line x1="-20" x2="0" y1="0" y2="0" fill="none" stroke="#000" stroke-width="1"/><text x="10" y="0" class="fnt2" dy="5.5" text-anchor="normal">VINREF</text></g><g transform="translate(0,107)"><line x1="-20" x2="0" y1="0" y2="0" fill="none" stroke="#000" stroke-width="1"/><text x="10" y="0" class="fnt2" dy="5.5" text-anchor="normal">VOUTREF</text></g><g transform="translate(260,19)"><line x1="16.16" x2="3.84" y1="0" y2="0" fill="none" stroke="#000" stroke-width="1" marker-end="url(#arrow_fwd)" marker-start="url(#arrow_back)"/><text x="-10" y="0" class="fnt2" dy="5.5" text-anchor="end">VCCD</text></g><g transform="translate(260,41)"><line x1="16.16" x2="3.84" y1="0" y2="0" fill="none" stroke="#000" stroke-width="1" marker-end="url(#arrow_fwd)" marker-start="url(#arrow_back)"/><text x="-10" y="0" class="fnt2" dy="5.5" text-anchor="end">VCCHIB</text></g><g transform="translate(260,63)"><line x1="16.16" x2="3.84" y1="0" y2="0" fill="none" stroke="#000" stroke-width="1" marker-end="url(#arrow_fwd)" marker-start="url(#arrow_back)"/><text x="-10" y="0" class="fnt2" dy="5.5" text-anchor="end">VDDIO</text></g><g transform="translate(260,85)"><line x1="16.16" x2="3.84" y1="0" y2="0" fill="none" stroke="#000" stroke-width="1" marker-end="url(#arrow_fwd)" marker-start="url(#arrow_back)"/><text x="-10" y="0" class="fnt2" dy="5.5" text-anchor="end">VDDIO_Q</text></g><g transform="translate(260,107)"><line x1="16.16" x2="3.84" y1="0" y2="0" fill="none" stroke="#000" stroke-width="1" marker-end="url(#arrow_fwd)" marker-start="url(#arrow_back)"/><text x="-10" y="0" class="fnt2" dy="5.5" text-anchor="end">VSSD</text></g><g transform="translate(260,129)"><line x1="16.16" x2="3.84" y1="0" y2="0" fill="none" stroke="#000" stroke-width="1" marker-end="url(#arrow_fwd)" marker-start="url(#arrow_back)"/><text x="-10" y="0" class="fnt2" dy="5.5" text-anchor="end">VSSIO</text></g><g transform="translate(260,151)"><line x1="16.16" x2="3.84" y1="0" y2="0" fill="none" stroke="#000" stroke-width="1" marker-end="url(#arrow_fwd)" marker-start="url(#arrow_back)"/><text x="-10" y="0" class="fnt2" dy="5.5" text-anchor="end">VSSIO_Q</text></g><g transform="translate(260,173)"><line x1="20" x2="0" y1="0" y2="0" fill="none" stroke="#000" stroke-width="1"/><text x="-10" y="0" class="fnt2" dy="5.5" text-anchor="end">TIE_LO_ESD</text></g></g><rect width="258" height="555" x="1" y="-20" fill="none" stroke="#000" stroke-width="3"/><text x="130" y="-30" class="fnt4" dy="-1" text-anchor="middle">top_sio</text><text x="130" y="555" class="fnt5" dy="1" text-anchor="middle">sky130_fd_io</text></svg>