<svg xmlns="http://www.w3.org/2000/svg" xmlns:xlink="http://www.w3.org/1999/xlink" width="291" height="295" version="1.1" viewBox="-25 -56 291 295" xml:space="preserve"><style type="text/css">.fnt1{fill:#000;font-family:Times;font-size:12pt;font-weight:400;font-style:italic}.fnt2{fill:#000;font-family:Helvetica;font-style:normal;text-decoration:overline}.fnt2,.fnt3{font-size:12pt;font-weight:400}.fnt3,.fnt4,.fnt5{fill:#000;font-family:Helvetica;font-style:normal}.fnt4{font-size:16pt;font-weight:700}.fnt5{font-size:10pt}</style><defs><marker id="arrow_fwd" markerHeight="8" markerUnits="userSpaceOnUse" markerWidth="8" orient="auto" refX="3.2" refY="4" viewBox="0 0 8 8"><g><path fill="#000" stroke="none" d="M 0 -4 C 2 -1, 2 1, 0 4 L 8 0 z" transform="translate(-0.0,4.0)"/></g></marker><marker id="arrow_back" markerHeight="8" markerUnits="userSpaceOnUse" markerWidth="8" orient="auto" refX="4.8" refY="4" viewBox="0 0 8 8"><g><path fill="#000" stroke="none" d="M 0 -4 C -2 -1, -2 1, 0 4 L -8 0 z" transform="translate(8.0,4.0)"/></g></marker></defs><rect width="100%" height="100%" x="-25" y="-56" fill="#fff"/><g transform="translate(0,0)"><rect width="240" height="105" x="0" y="-21" fill="#FFF6B1" stroke="#000" stroke-width="1"/><text x="120" y="-5" class="fnt1" dy="5.5" text-anchor="middle">Control Signals</text><g transform="translate(0,19)"><line x1="-20" x2="0" y1="0" y2="0" fill="none" stroke="#000" stroke-width="1"/><ellipse cx="-3" cy="0" fill="#FFF" stroke="#000" stroke-width="1" rx="3" ry="3"/><text x="10" y="0" class="fnt2" dy="5.5" text-anchor="normal">HLD_H</text></g><g transform="translate(0,41)"><line x1="-20" x2="0" y1="0" y2="0" fill="none" stroke="#000" stroke-width="1"/><text x="10" y="0" class="fnt3" dy="5.5" text-anchor="normal">IBUF_SEL</text></g><g transform="translate(0,63)"><line x1="-20" x2="0" y1="0" y2="0" fill="none" stroke="#000" stroke-width="1"/><text x="10" y="0" class="fnt3" dy="5.5" text-anchor="normal">OD_H</text></g></g><g transform="translate(0,105.0)"><rect width="240" height="127" x="0" y="-21" fill="#FBB" stroke="#000" stroke-width="1"/><text x="120" y="-5" class="fnt1" dy="5.5" text-anchor="middle">Power</text><g transform="translate(0,19)"><line x1="-20" x2="0" y1="0" y2="0" fill="none" stroke="#000" stroke-width="1"/><text x="10" y="0" class="fnt3" dy="5.5" text-anchor="normal">VREF_SEL</text></g><g transform="translate(0,41)"><line x1="-20" x2="0" y1="0" y2="0" fill="none" stroke="#000" stroke-width="1"/><text x="10" y="0" class="fnt3" dy="5.5" text-anchor="normal">VREG_EN</text></g><g transform="translate(0,63)"><line x1="-20" x2="0" y1="0" y2="0" fill="none" stroke="#000" stroke-width="1"/><text x="10" y="0" class="fnt3" dy="5.5" text-anchor="normal">VTRIP_SEL</text></g><g transform="translate(0,85)"><line x1="-20" x2="0" y1="0" y2="0" fill="none" stroke="#000" stroke-width="1"/><text x="10" y="0" class="fnt3" dy="5.5" text-anchor="normal">VOHREF</text></g><g transform="translate(240,19)"><line x1="16.16" x2="3.84" y1="0" y2="0" fill="none" stroke="#000" stroke-width="1" marker-end="url(#arrow_fwd)" marker-start="url(#arrow_back)"/><text x="-10" y="0" class="fnt3" dy="5.5" text-anchor="end">REFLEAK_BIAS</text></g><g transform="translate(240,41)"><line x1="20" x2="0" y1="0" y2="0" fill="none" stroke="#000" stroke-width="1"/><text x="-10" y="0" class="fnt3" dy="5.5" text-anchor="end">VINREF</text></g><g transform="translate(240,63)"><line x1="20" x2="0" y1="0" y2="0" fill="none" stroke="#000" stroke-width="1"/><text x="-10" y="0" class="fnt3" dy="5.5" text-anchor="end">VOUTREF</text></g></g><rect width="238" height="230" x="1" y="-20" fill="none" stroke="#000" stroke-width="3"/><text x="120" y="-30" class="fnt4" dy="-1" text-anchor="middle">top_refgen</text><text x="120" y="230" class="fnt5" dy="1" text-anchor="middle">sky130_fd_io</text></svg>